<?xml version="1.0" encoding="UTF-8"?>
<svg version="1.1" xmlns="http://www.w3.org/2000/svg" width="94" height="25">
<path d="M0 0 C3.96 0 7.92 0 12 0 C11.67 0.99 11.34 1.98 11 3 C9.02 3 7.04 3 5 3 C5 4.65 5 6.3 5 8 C6.98 7.67 8.96 7.34 11 7 C11 7.66 11 8.32 11 9 C12.98 8.34 14.96 7.68 17 7 C17 7.66 17 8.32 17 9 C17.99 9 18.98 9 20 9 C20 9.66 20 10.32 20 11 C20.66 11 21.32 11 22 11 C22 10.34 22 9.68 22 9 C23.98 8.34 25.96 7.68 28 7 C28 7.66 28 8.32 28 9 C28.99 9 29.98 9 31 9 C31 9.66 31 10.32 31 11 C31.598125 10.360625 32.19625 9.72125 32.8125 9.0625 C35 7 35 7 38 6 C39.22520264 2.99152582 39.22520264 2.99152582 40 0 C40.99 0.33 41.98 0.66 43 1 C43 2.98 43 4.96 43 7 C43.62648437 6.97679687 44.25296875 6.95359375 44.8984375 6.9296875 C45.71570312 6.91164063 46.53296875 6.89359375 47.375 6.875 C48.18710937 6.85179687 48.99921875 6.82859375 49.8359375 6.8046875 C52 7 52 7 54 9 C56.05396726 8.59070014 56.05396726 8.59070014 58 8 C58.495 8.495 58.495 8.495 59 9 C59.5878125 8.2575 59.5878125 8.2575 60.1875 7.5 C62 6 62 6 64.625 5.75 C67 6 67 6 68 7 C68.33 5.02 68.66 3.04 69 1 C69.99 1 70.98 1 72 1 C72.495 2.98 72.495 2.98 73 5 C73.66 4.34 74.32 3.68 75 3 C75.99 3 76.98 3 78 3 C77.35455571 6.48539917 75.89865603 9.02819057 74 12 C76.64 12 79.28 12 82 12 C82 12.99 82 13.98 82 15 C78.7 15.33 75.4 15.66 72 16 C71.505 18.475 71.505 18.475 71 21 C65.54230189 21.11138159 60.38490641 20.91657981 55 20 C54.505 18.515 54.505 18.515 54 17 C53.38125 17.7425 53.38125 17.7425 52.75 18.5 C51 20 51 20 47 20 C47 21.65 47 23.3 47 25 C46.01 25 45.02 25 44 25 C43.505 22.03 43.505 22.03 43 19 C41.16299211 18.22757731 41.16299211 18.22757731 39 18 C38.505 18.495 38.01 18.99 37.5 19.5 C37.005 19.995 36.51 20.49 36 21 C33.875 20.8125 33.875 20.8125 32 20 C31.505 19.01 31.505 19.01 31 18 C29.6696875 18.556875 29.6696875 18.556875 28.3125 19.125 C24.43072107 20.15037557 23.58003351 19.4320134 20 18 C17.99594773 18.65438441 15.99571323 19.32060826 14 20 C11.6875 19.375 11.6875 19.375 10 18 C8.76156206 15.04680182 8.95812843 14.12561472 10 11 C8.68 11.33 7.36 11.66 6 12 C5.67 14.64 5.34 17.28 5 20 C3.68 20 2.36 20 1 20 C0.83178895 17.4167588 0.66537483 14.83342301 0.5 12.25 C0.45230469 11.52039062 0.40460937 10.79078125 0.35546875 10.0390625 C0.14183103 6.68189836 0 3.36563724 0 0 Z M64 9 C61.65026182 10.89755144 61.65026182 10.89755144 61.875 14.125 C61.91625 15.07375 61.9575 16.0225 62 17 C64.31 17 66.62 17 69 17 C69 14.69 69 12.38 69 10 C66.60280568 9.32041397 66.60280568 9.32041397 64 9 Z M49 10 C48.34 11.98 47.68 13.96 47 16 C48.32 16 49.64 16 51 16 C51.33 15.01 51.66 14.02 52 13 C51.01 12.01 50.02 11.02 49 10 Z M38 10 C37.01 10.99 36.02 11.98 35 13 C35.33 13.99 35.66 14.98 36 16 C36.99 14.68 37.98 13.36 39 12 C38.67 11.34 38.34 10.68 38 10 Z M14 12 C13.67 13.32 13.34 14.64 13 16 C14.32 16 15.64 16 17 16 C17.33 15.01 17.66 14.02 18 13 C16.68 12.67 15.36 12.34 14 12 Z M25 12 C24.67 13.32 24.34 14.64 24 16 C25.32 16 26.64 16 28 16 C28.33 15.01 28.66 14.02 29 13 C27.68 12.67 26.36 12.34 25 12 Z " fill="#E8500E" transform="translate(1,0)"/>
<path d="M0 0 C0.99 0 1.98 0 3 0 C3.33 1.32 3.66 2.64 4 4 C4.66 3.34 5.32 2.68 6 2 C6.99 2 7.98 2 9 2 C8.35455571 5.48539917 6.89865603 8.02819057 5 11 C7.64 11 10.28 11 13 11 C13 11.99 13 12.98 13 14 C9.7 14.33 6.4 14.66 3 15 C2.67 16.65 2.34 18.3 2 20 C-3.45769811 20.11138159 -8.61509359 19.91657981 -14 19 C-14.33 18.01 -14.66 17.02 -15 16 C-15.4125 16.495 -15.825 16.99 -16.25 17.5 C-18 19 -18 19 -22 19 C-22 20.65 -22 22.3 -22 24 C-22.99 24 -23.98 24 -25 24 C-25.33 18.06 -25.66 12.12 -26 6 C-23.03 6 -20.06 6 -17 6 C-16.34 6.66 -15.68 7.32 -15 8 C-12.94603274 7.59070014 -12.94603274 7.59070014 -11 7 C-10.67 7.33 -10.34 7.66 -10 8 C-9.608125 7.505 -9.21625 7.01 -8.8125 6.5 C-7 5 -7 5 -4.375 4.75 C-2 5 -2 5 -1 6 C-0.67 4.02 -0.34 2.04 0 0 Z M-5 8 C-7.34973818 9.89755144 -7.34973818 9.89755144 -7.125 13.125 C-7.08375 14.07375 -7.0425 15.0225 -7 16 C-4.69 16 -2.38 16 0 16 C0 13.69 0 11.38 0 9 C-2.39719432 8.32041397 -2.39719432 8.32041397 -5 8 Z M-20 9 C-20.66 10.98 -21.32 12.96 -22 15 C-20.68 15 -19.36 15 -18 15 C-17.67 14.01 -17.34 13.02 -17 12 C-17.99 11.01 -18.98 10.02 -20 9 Z " fill="#FCFBF9" transform="translate(70,1)"/>
<path d="M0 0 C0.99 0.33 1.98 0.66 3 1 C3.33 3.31 3.66 5.62 4 8 C4.66 5.69 5.32 3.38 6 1 C7.32 1.33 8.64 1.66 10 2 C10.02692484 4.29160319 10.04636124 6.58329546 10.0625 8.875 C10.07410156 10.15117187 10.08570312 11.42734375 10.09765625 12.7421875 C10 16 10 16 9 18 C8.01 18 7.02 18 6 18 C6 16.35 6 14.7 6 13 C4.35 12.67 2.7 12.34 1 12 C0.63762737 10.37681021 0.28534843 8.7513642 -0.0625 7.125 C-0.25972656 6.22007813 -0.45695312 5.31515625 -0.66015625 4.3828125 C-1 2 -1 2 0 0 Z " fill="#FCFBF9" transform="translate(84,7)"/>
<path d="M0 0 C0.66 0 1.32 0 2 0 C2 1.32 2 2.64 2 4 C1.01 3.67 0.02 3.34 -1 3 C-0.67 2.01 -0.34 1.02 0 0 Z " fill="#FCFBF9" transform="translate(57,3)"/>
</svg>
